PathFileType	4	(X/Y/Z)	c:/Users/goper/Files/vsCode/490R/osim_files/A05/A05_Slow_03.trc
DataRate	CameraRate	NumFrames	NumMarkers	Units                	OrigDataRate	OrigDataStartFrame	OrigNumFrames
250.00	250.00	6	36	mm	250.0	1741	2785
                Frame#	Time	LPSIS			LASIS			LTH1			LTH2			LTH3			LTH4			LLFE			LMFE			LSH1			LSH2			LSH3			LSH4			LLMAL			LMMAL			LCAL			LMTP5			LTOE			LMTP1			RPSIS			RASIS			RTH1			RTH2			RTH3			RTH4			RLFE			RMFE			RSH1			RSH2			RSH3			RSH4			RLMAL			RMMAL			RCAL			RMTP1			RTOE			RMTP5		
		X1	Y1	Z1	X2	Y2	Z2	X3	Y3	Z3	X4	Y4	Z4	X5	Y5	Z5	X6	Y6	Z6	X7	Y7	Z7	X8	Y8	Z8	X9	Y9	Z9	X10	Y10	Z10	X11	Y11	Z11	X12	Y12	Z12	X13	Y13	Z13	X14	Y14	Z14	X15	Y15	Z15	X16	Y16	Z16	X17	Y17	Z17	X18	Y18	Z18	X19	Y19	Z19	X20	Y20	Z20	X21	Y21	Z21	X22	Y22	Z22	X23	Y23	Z23	X24	Y24	Z24	X25	Y25	Z25	X26	Y26	Z26	X27	Y27	Z27	X28	Y28	Z28	X29	Y29	Z29	X30	Y30	Z30	X31	Y31	Z31	X32	Y32	Z32	X33	Y33	Z33	X34	Y34	Z34	X35	Y35	Z35	X36	Y36	Z36

1741	6.96000	-1654.69092	1020.78491	370.33173	-1842.13525	950.77130	474.14444	-1666.29846	687.19666	511.71826	-1673.77710	648.07477	497.52771	-1724.96497	691.30334	521.31934	-1724.69360	648.68091	513.16913	-1714.43140	472.36465	481.12280	-1719.69055	474.09280	381.32233	-1666.87341	380.69482	485.94437	-1660.01331	337.37387	485.23889	-1724.70142	365.19583	475.48077	-1710.83630	324.92969	477.75299	-1647.04016	112.00810	467.81485	-1645.70764	117.72173	378.51486	-1563.22180	66.25443	416.29584	-1773.56592	45.43687	488.01016	-1823.43494	66.62807	427.63782	-1780.40808	60.79437	380.49738	-1657.41138	1023.00812	287.41971	-1839.73096	983.72083	180.94846	-1919.34790	633.01440	94.66015	-1943.07690	598.66113	104.71469	-1969.18030	662.70764	117.56046	-1983.07007	619.03253	125.49440	-1930.40283	555.70160	109.48076	-1969.22302	536.17932	246.45010	-1928.80188	296.57169	103.43707	-1934.78418	250.01723	111.67279	-1989.05042	297.05603	107.76131	-1986.09863	248.97989	110.56212	-1953.30530	136.32304	123.92062	-2004.12451	166.94064	209.27567	-1918.79089	79.86514	206.14436	-2125.84302	105.04525	184.51772	-2147.39673	122.29710	127.48067	-2087.21875	84.47916	76.38741
1742	6.96400	-1658.79761	1020.66595	370.12952	-1845.28882	950.60602	474.12665	-1668.58130	687.37579	512.09338	-1676.29163	648.64191	498.12158	-1727.31177	691.27716	521.38409	-1726.84167	648.65656	513.28339	-1716.02576	472.35065	481.18860	-1721.50342	474.13107	381.36923	-1667.97888	380.87265	485.96225	-1661.10852	337.61316	485.26624	-1725.79541	365.21466	475.64041	-1712.25024	325.15167	477.66055	-1647.24585	112.15768	467.86673	-1645.94592	117.95193	378.58789	-1562.98499	66.36935	416.45792	-1773.81665	45.27179	488.08142	-1823.10132	66.25365	427.43634	-1780.78345	61.12490	378.18179	-1660.83386	1022.79547	287.22916	-1843.27063	982.98199	180.90137	-1921.09424	631.33563	95.59504	-1944.94043	596.98724	105.64899	-1971.15833	661.09296	118.04462	-1985.04700	617.50592	126.06872	-1932.28149	554.16406	110.58230	-1971.80103	535.15155	247.48044	-1936.01941	294.91180	104.75735	-1943.23779	248.42468	113.05283	-1996.21619	296.55981	108.75879	-1994.47168	248.45996	111.59059	-1964.37939	135.06902	125.26614	-2014.72461	166.64529	210.37093	-1931.63794	78.50674	207.47330	-2137.73169	107.35835	185.05481	-2158.61353	125.27063	127.86380	-2098.91089	86.25734	76.87447
1743	6.96800	-1661.38269	1020.57507	369.90875	-1848.46619	950.44568	474.15335	-1670.88782	687.53906	512.11304	-1678.50354	648.76202	498.17371	-1729.61804	691.28357	521.47003	-1729.03809	648.59644	513.38629	-1717.50305	472.38736	481.34549	-1723.22070	474.18768	381.52057	-1669.30225	381.07629	486.03018	-1662.16528	337.83401	485.33197	-1727.06921	365.15625	475.86325	-1712.85474	325.03549	477.92874	-1647.41504	112.25884	467.91147	-1646.21313	118.18094	378.68243	-1563.11792	66.69127	416.54218	-1773.86377	45.31241	488.05661	-1823.57849	66.22974	427.67096	-1782.44312	62.20673	379.75247	-1664.46533	1022.53632	287.03754	-1845.96729	981.40997	180.89528	-1922.86377	629.53473	96.53532	-1946.66418	595.28479	106.68945	-1973.19666	659.42310	118.46418	-1986.99133	615.81445	126.74101	-1934.16821	552.56226	111.55468	-1974.43774	534.16974	248.58917	-1943.22205	293.24960	106.13943	-1951.57544	246.92232	114.49669	-2003.30786	296.05872	109.83709	-2002.63867	247.95032	112.68174	-1975.23279	134.03952	126.55259	-2025.00574	166.47057	211.60451	-1944.02795	75.03972	209.24748	-2149.46631	110.02927	185.46872	-2169.05737	128.92227	128.19130	-2107.72607	88.66696	75.45134
1744	6.97200	-1664.83740	1020.39508	369.70819	-1851.77319	950.40863	474.18692	-1673.24329	687.62543	512.14099	-1680.79053	649.01831	498.21799	-1731.96631	691.25562	521.58783	-1731.32043	648.64954	513.49286	-1719.10938	472.43726	481.39700	-1724.99561	474.15903	381.60803	-1670.39038	380.82541	486.23199	-1663.23474	338.08582	485.34702	-1728.03113	365.07059	475.95273	-1713.89294	325.11066	478.05978	-1647.69238	112.44762	468.03268	-1646.40771	118.42805	378.77829	-1563.82776	67.75426	416.55975	-1773.89368	45.24650	488.08182	-1823.30261	65.84980	427.49844	-1782.45789	62.13737	379.74664	-1668.12439	1022.27155	286.81900	-1849.63831	980.63025	180.78015	-1924.54065	627.72375	97.43716	-1948.32410	593.43756	107.65878	-1974.63855	657.33600	118.98243	-1988.72974	613.98419	127.55482	-1936.11035	551.70709	112.55715	-1977.11914	533.22443	249.72255	-1950.54651	291.53867	107.68235	-1959.77771	245.50606	115.99482	-2010.42517	295.71103	110.90125	-2010.75220	247.54701	113.80997	-1985.91968	133.03938	128.06783	-2035.31384	166.57318	212.93901	-1956.42932	73.16073	210.88232	-2160.96167	112.79673	186.26070	-2180.85205	132.80841	128.10339	-2121.15283	89.88027	77.08317
1745	6.97600	-1669.10010	1020.27997	369.34207	-1855.01074	950.39539	474.21918	-1675.59985	687.93652	512.12219	-1683.06702	649.19135	498.17932	-1734.31958	691.32410	521.67828	-1733.51526	648.62140	513.53217	-1720.76208	472.42184	481.51620	-1726.77295	474.19043	381.68170	-1671.62952	381.07416	486.32254	-1664.37463	338.36047	485.33646	-1729.60620	365.29080	476.11423	-1714.93823	325.20551	478.16293	-1647.96899	112.66463	468.12027	-1646.64441	118.69667	378.81329	-1563.76123	67.56950	416.66388	-1773.92505	45.17367	488.12372	-1823.45410	65.74801	427.55533	-1782.53723	62.11000	379.75085	-1671.67615	1022.06171	286.52103	-1854.23364	980.67090	180.54614	-1926.22876	625.83038	98.32176	-1949.94763	591.52307	108.72243	-1976.95349	655.71350	119.44730	-1990.55188	612.09790	128.20752	-1937.53735	549.41907	113.14894	-1979.48975	532.05847	250.83624	-1957.70850	289.78934	109.16296	-1967.82532	244.17184	117.53768	-2017.39124	295.38535	112.05467	-2018.72192	247.13626	114.97349	-1996.40662	132.29709	129.55173	-2045.30566	166.81299	214.28110	-1967.95569	71.36093	212.61073	-2171.80371	115.55943	187.03906	-2192.46484	135.97849	129.22893	-2132.49805	92.91404	78.71090
1746	6.98000	-1671.54724	1020.08105	369.09879	-1858.24915	950.37207	474.14325	-1678.01550	688.28021	512.09344	-1685.28674	649.41852	498.14902	-1736.73169	691.35944	521.77502	-1735.71985	648.65479	513.62952	-1722.31665	472.46649	481.59219	-1728.58118	474.20731	381.82495	-1672.81506	381.29913	486.34293	-1665.38318	338.60779	485.38934	-1730.38721	365.15961	476.24478	-1715.92651	325.22955	478.23935	-1648.22839	112.89386	468.21735	-1646.85730	118.96587	378.90039	-1563.89990	67.84878	416.66232	-1773.95740	45.12455	488.17065	-1823.56970	65.55660	427.58109	-1782.61267	62.06741	379.75952	-1673.21582	1022.66858	285.26550	-1857.87305	979.79663	180.35712	-1927.88757	623.90112	99.20926	-1951.43420	589.60095	109.66226	-1978.72791	653.73602	119.87904	-1992.28992	609.99738	128.89664	-1939.26953	547.78101	113.97162	-1981.80640	530.94495	251.96091	-1964.01453	288.19684	110.08564	-1975.69836	242.91557	119.11570	-2024.33813	295.07166	113.25195	-2026.51794	246.74324	116.18443	-2006.66101	131.57071	131.10744	-2055.16895	167.19267	215.70728	-1980.47852	69.91134	214.01314	-2183.32178	118.80602	188.19225	-2202.52026	139.38406	130.20076	-2143.11035	95.34671	79.41055
